HIERARCHY
ROOT hip
{
  OFFSET 19.9228 63.5952 58.4804
  CHANNELS 6 Xposition Yposition Zposition Zrotation Xrotation Yrotation
  JOINT abdomen
  {
    OFFSET 0 20.6881 -0.73152
    CHANNELS 3 Zrotation Xrotation Yrotation
    JOINT chest
    {
      OFFSET 0 11.7043 -0.48768
      CHANNELS 3 Zrotation Xrotation Yrotation
      JOINT neck
      {
        OFFSET 0 22.1894 -2.19456
        CHANNELS 3 Zrotation Xrotation Yrotation
        JOINT head
        {
          OFFSET -0.24384 7.07133 1.2192
          CHANNELS 3 Zrotation Xrotation Yrotation
          JOINT leftEye
          {
            OFFSET 4.14528 8.04674 8.04672
            CHANNELS 3 Zrotation Xrotation Yrotation
            End Site
            {
              OFFSET 1 0 0
            }
          }
          JOINT rightEye
          {
            OFFSET -3.6576 8.04674 8.04672
            CHANNELS 3 Zrotation Xrotation Yrotation
            End Site
            {
              OFFSET 1 0 0
            }
          }
        }
      }
      JOINT rCollar
      {
        OFFSET -2.68224 19.2634 -4.8768
        CHANNELS 3 Zrotation Xrotation Yrotation
        JOINT rShldr
        {
          OFFSET -8.77824 -1.95073 1.46304
          CHANNELS 3 Zrotation Xrotation Yrotation
          JOINT rForeArm
          {
            OFFSET -28.1742 -1.7115 0.48768
            CHANNELS 3 Zrotation Xrotation Yrotation
            JOINT rHand
            {
              OFFSET -22.5879 0.773209 7.07136
              CHANNELS 3 Zrotation Xrotation Yrotation
              JOINT rThumb1
              {
                OFFSET -1.2192 -0.487915 3.41376
                CHANNELS 3 Zrotation Xrotation Yrotation
                JOINT rThumb2
                {
                  OFFSET -3.37035 -0.52449 3.41376
                  CHANNELS 3 Zrotation Xrotation Yrotation
                  End Site
                  {
                    OFFSET -1.78271 -1.18214 1.43049
                  }
                }
              }
              JOINT rIndex1
              {
                OFFSET -7.75947 0.938293 5.60832
                CHANNELS 3 Zrotation Xrotation Yrotation
                JOINT rIndex2
                {
                  OFFSET -2.54057 -0.884171 1.56538
                  CHANNELS 3 Zrotation Xrotation Yrotation
                  End Site
                  {
                    OFFSET -1.62519 -0.234802 1.16502
                  }
                }
              }
              JOINT rMid1
              {
                OFFSET -8.24714 1.18213 3.41376
                CHANNELS 3 Zrotation Xrotation Yrotation
                JOINT rMid2
                {
                  OFFSET -3.10165 -0.590103 1.0647
                  CHANNELS 3 Zrotation Xrotation Yrotation
                  End Site
                  {
                    OFFSET -2.48547 -0.328903 0.83742
                  }
                }
              }
              JOINT rRing1
              {
                OFFSET -8.82822 0.546677 1.51678
                CHANNELS 3 Zrotation Xrotation Yrotation
                JOINT rRing2
                {
                  OFFSET -2.60934 -0.819778 -0.0198488
                  CHANNELS 3 Zrotation Xrotation Yrotation
                  End Site
                  {
                    OFFSET -2.33842 -0.294052 0.168128
                  }
                }
              }
              JOINT rPinky1
              {
                OFFSET -8.27202 -0.0477905 -0.4584
                CHANNELS 3 Zrotation Xrotation Yrotation
                JOINT rPinky2
                {
                  OFFSET -1.82734 -0.647385 -0.700984
                  CHANNELS 3 Zrotation Xrotation Yrotation
                  End Site
                  {
                    OFFSET -1.69225 -0.51767 -0.607171
                  }
                }
              }
            }
          }
        }
      }
      JOINT lCollar
      {
        OFFSET 2.68224 19.2634 -4.8768
        CHANNELS 3 Zrotation Xrotation Yrotation
        JOINT lShldr
        {
          OFFSET 8.77824 -1.95073 1.46304
          CHANNELS 3 Zrotation Xrotation Yrotation
          JOINT lForeArm
          {
            OFFSET 28.1742 -1.7115 0.48768
            CHANNELS 3 Zrotation Xrotation Yrotation
            JOINT lHand
            {
              OFFSET 22.5879 0.773209 7.07136
              CHANNELS 3 Zrotation Xrotation Yrotation
              JOINT lThumb1
              {
                OFFSET 1.2192 -0.487915 3.41376
                CHANNELS 3 Zrotation Xrotation Yrotation
                JOINT lThumb2
                {
                  OFFSET 3.37035 -0.52449 3.41376
                  CHANNELS 3 Zrotation Xrotation Yrotation
                  End Site
                  {
                    OFFSET 1.78271 -1.18214 1.43049
                  }
                }
              }
              JOINT lIndex1
              {
                OFFSET 7.75947 0.938293 5.60832
                CHANNELS 3 Zrotation Xrotation Yrotation
                JOINT lIndex2
                {
                  OFFSET 2.54057 -0.884171 1.56538
                  CHANNELS 3 Zrotation Xrotation Yrotation
                  End Site
                  {
                    OFFSET 1.62519 -0.234802 1.16502
                  }
                }
              }
              JOINT lMid1
              {
                OFFSET 8.24714 1.18213 3.41376
                CHANNELS 3 Zrotation Xrotation Yrotation
                JOINT lMid2
                {
                  OFFSET 3.10165 -0.590103 1.0647
                  CHANNELS 3 Zrotation Xrotation Yrotation
                  End Site
                  {
                    OFFSET 2.48547 -0.328903 0.83742
                  }
                }
              }
              JOINT lRing1
              {
                OFFSET 8.82822 0.546677 1.51678
                CHANNELS 3 Zrotation Xrotation Yrotation
                JOINT lRing2
                {
                  OFFSET 2.60934 -0.819778 -0.0198488
                  CHANNELS 3 Zrotation Xrotation Yrotation
                  End Site
                  {
                    OFFSET 2.33842 -0.294052 0.168128
                  }
                }
              }
              JOINT lPinky1
              {
                OFFSET 8.27202 -0.0477905 -0.4584
                CHANNELS 3 Zrotation Xrotation Yrotation
                JOINT lPinky2
                {
                  OFFSET 1.82734 -0.647385 -0.700984
                  CHANNELS 3 Zrotation Xrotation Yrotation
                  End Site
                  {
                    OFFSET 1.69225 -0.51767 -0.607171
                  }
                }
              }
            }
          }
        }
      }
    }
  }
  JOINT rButtock
  {
    OFFSET -8.77824 4.35084 1.2192
    CHANNELS 3 Zrotation Xrotation Yrotation
    JOINT rThigh
    {
      OFFSET 0 -1.70687 -2.19456
      CHANNELS 3 Zrotation Xrotation Yrotation
      JOINT rShin
      {
        OFFSET 0 -36.8199 0.73152
        CHANNELS 3 Zrotation Xrotation Yrotation
        JOINT rFoot
        {
          OFFSET 0.73152 -45.1104 -5.12064
          CHANNELS 3 Zrotation Xrotation Yrotation
          End Site
          {
            OFFSET -1.1221 -3.69964 12.103
          }
        }
      }
    }
  }
  JOINT lButtock
  {
    OFFSET 8.77824 4.35084 1.2192
    CHANNELS 3 Zrotation Xrotation Yrotation
    JOINT lThigh
    {
      OFFSET 0 -1.70687 -2.19456
      CHANNELS 3 Zrotation Xrotation Yrotation
      JOINT lShin
      {
        OFFSET 0 -36.8199 0.73152
        CHANNELS 3 Zrotation Xrotation Yrotation
        JOINT lFoot
        {
          OFFSET -0.73152 -45.1104 -5.12064
          CHANNELS 3 Zrotation Xrotation Yrotation
          End Site
          {
            OFFSET 1.1221 -3.69964 12.103
          }
        }
      }
    }
  }
}
MOTION
Frames:	4
Frame Time:	0.00833333
19.8939 51.4045 48.3757 7.77365 33.6578 -10.7021 -5.29182 2.57059 -4.09986 2.35991 -5.82449 -0.668556 -9.00291 -20.3479 -9.7146 16.0943 -19.3984 -11.6676 -0 0 0 -0 0 0 -2.20611e-013 -2.68758e-013 1.72769e-013 56.1628 68.1803 10.8092 -10.3691 -4.36881 18.4954 -0.137285 10.5013 1.4926 -4.7628e-009 2.74596e-009 2.13943e-009 -8.20851e-009 4.76018e-009 3.75205e-009 -4.76279e-009 2.74597e-009 2.13942e-009 7.73091 5.47488 0.417314 -4.7628e-009 2.74596e-009 2.13943e-009 2.90554 0.965183 0.102902 -4.76279e-009 2.74596e-009 2.13943e-009 10.2786 0.731801 0.0259123 -4.7628e-009 2.74596e-009 2.13943e-009 2.22167 -0.733487 -0.20892 -2.20703e-013 -2.68756e-013 1.72638e-013 -79.3844 51.2822 4.7792 9.06808 -3.59521 -16.0633 0.3448 -16.6006 2.39966 4.97269e-009 1.17431e-010 -4.13569e-009 8.62463e-009 1.77297e-010 -7.10479e-009 4.97268e-009 1.1743e-010 -4.13568e-009 -7.73091 5.47488 -0.417314 4.97268e-009 1.17433e-010 -4.1357e-009 -2.90554 0.965183 -0.102902 4.97268e-009 1.17431e-010 -4.13569e-009 -10.2786 0.731801 -0.0259123 4.97269e-009 1.17433e-010 -4.1357e-009 -2.22167 -0.733487 0.20892 -2.03217e-016 0 -3.88251e-019 -27.0616 -79.6973 -16.676 -0.94766 60.9026 2.22621 -1.48735 -12.2195 -11.5591 2.03217e-016 0 3.88251e-019 29.5779 -76.025 30.4009 0.715067 58.0383 -2.1619 0.100651 -10.6191 6.74986 
19.8972 51.6397 48.5576 7.78251 33.7052 -10.7222 -5.32971 1.92756 -4.14735 2.42543 -5.75478 -0.674743 -8.98577 -20.0732 -9.69813 16.1532 -19.0648 -11.7073 -0 0 0 -0 0 0 -2.97025e-013 -4.93728e-013 1.80902e-013 56.4679 67.4713 10.6491 -10.2497 -4.29471 18.2705 -0.161753 11.4161 1.62598 -8.70162e-009 3.86866e-009 2.87128e-009 -1.50048e-008 6.71116e-009 5.05661e-009 -8.70161e-009 3.86868e-009 2.87127e-009 7.73091 5.47488 0.417314 -8.70162e-009 3.86867e-009 2.87129e-009 2.90554 0.965183 0.102902 -8.70161e-009 3.86867e-009 2.87128e-009 10.2786 0.731801 0.0259123 -8.70162e-009 3.86867e-009 2.87129e-009 2.22167 -0.733487 -0.20892 -2.97059e-013 -4.93734e-013 1.8079e-013 -79.2275 50.425 4.54048 8.91131 -3.50633 -15.7739 0.291677 -15.2817 2.19962 7.83509e-009 6.54338e-010 -7.49869e-009 1.36005e-008 1.08366e-009 -1.28881e-008 7.83508e-009 6.54336e-010 -7.49868e-009 -7.73091 5.47488 -0.417314 7.83508e-009 6.54342e-010 -7.4987e-009 -2.90554 0.965183 -0.102902 7.83508e-009 6.54336e-010 -7.49869e-009 -10.2786 0.731801 -0.0259123 7.83509e-009 6.54339e-010 -7.49871e-009 -2.22167 -0.733487 0.20892 -2.03217e-016 0 -3.88251e-019 -25.1291 -79.3509 -14.4593 -0.918399 60.3947 2.18926 -1.53889 -12.2892 -11.6779 2.03217e-016 0 3.88251e-019 28.481 -75.672 29.2728 0.691107 57.5252 -2.12716 0.117068 -10.5584 6.86077 
19.8998 51.8759 48.7379 7.79172 33.7559 -10.7451 -5.36234 1.2748 -4.19855 2.48814 -5.66843 -0.682593 -8.96248 -19.8045 -9.67771 16.1942 -18.7472 -11.7433 -0 0 0 -0 0 0 -3.06938e-013 -5.72495e-013 1.54257e-013 56.7536 66.7332 10.5204 -10.14 -4.22693 18.0643 -0.184128 12.1364 1.7319 -1.00818e-008 4.0504e-009 2.97903e-009 -1.73874e-008 7.02898e-009 5.25574e-009 -1.00818e-008 4.05043e-009 2.97903e-009 7.73091 5.47488 0.417314 -1.00818e-008 4.05041e-009 2.97904e-009 2.90554 0.965183 0.102902 -1.00818e-008 4.05041e-009 2.97904e-009 10.2786 0.731801 0.0259123 -1.00818e-008 4.05041e-009 2.97904e-009 2.22167 -0.733487 -0.20892 -3.06929e-013 -5.72504e-013 1.54158e-013 -79.0869 49.6414 4.3413 8.81165 -3.44985 -15.591 0.255925 -14.2558 2.04635 8.6839e-009 9.27612e-010 -8.71565e-009 1.5079e-008 1.5473e-009 -1.49813e-008 8.68389e-009 9.27609e-010 -8.71564e-009 -7.73091 5.47488 -0.417314 8.6839e-009 9.27616e-010 -8.71566e-009 -2.90554 0.965183 -0.102902 8.68389e-009 9.27608e-010 -8.71566e-009 -10.2786 0.731801 -0.0259123 8.68391e-009 9.27613e-010 -8.71567e-009 -2.22167 -0.733487 0.20892 -2.03217e-016 0 -3.88251e-019 -23.2776 -78.9911 -12.3162 -0.889666 59.8762 2.15219 -1.58757 -12.3465 -11.7901 2.03217e-016 0 3.88251e-019 27.4095 -75.3151 28.1579 0.667411 57.0016 -2.09248 0.134399 -10.4899 6.98649 
19.9016 52.1131 48.9168 7.80169 33.8159 -10.7733 -5.38717 0.603915 -4.253 2.54855 -5.56198 -0.691835 -8.93719 -19.5402 -9.6548 16.2194 -18.4502 -11.7759 -0 0 0 -0 0 0 -2.02969e-013 -4.12725e-013 5.83227e-014 57.0291 65.932 10.4182 -10.0327 -4.16127 17.863 -0.202468 12.6696 1.81078 -7.27099e-009 2.64401e-009 2.02079e-009 -1.25411e-008 4.59087e-009 3.56834e-009 -7.27099e-009 2.64403e-009 2.02078e-009 7.73091 5.47488 0.417314 -7.27099e-009 2.64402e-009 2.0208e-009 2.90554 0.965183 0.102902 -7.27099e-009 2.64401e-009 2.02079e-009 10.2786 0.731801 0.0259123 -7.271e-009 2.64401e-009 2.02079e-009 2.22167 -0.733487 -0.20892 -2.02936e-013 -4.12728e-013 5.82315e-014 -78.9623 48.9322 4.1831 8.77799 -3.43049 -15.5298 0.231676 -13.5326 1.9389 6.21116e-009 7.90095e-010 -6.43012e-009 1.07888e-008 1.32167e-009 -1.10517e-008 6.21115e-009 7.90094e-010 -6.43011e-009 -7.73091 5.47488 -0.417314 6.21116e-009 7.901e-010 -6.43013e-009 -2.90554 0.965183 -0.102902 6.21115e-009 7.90093e-010 -6.43012e-009 -10.2786 0.731801 -0.0259123 6.21116e-009 7.90097e-010 -6.43013e-009 -2.22167 -0.733487 0.20892 -2.03217e-016 0 -3.88251e-019 -21.5105 -78.6285 -10.2507 -0.861704 59.3495 2.11508 -1.63305 -12.4001 -11.8859 2.03217e-016 0 3.88251e-019 26.3824 -74.962 27.0729 0.644264 56.4721 -2.0583 0.15273 -10.414 7.12914 
